<?xml version="1.0" encoding="UTF-8" standalone="no"?>
<!-- Created with Inkscape (http://www.inkscape.org/) -->

<svg
   xmlns:dc="http://purl.org/dc/elements/1.1/"
   xmlns:cc="http://creativecommons.org/ns#"
   xmlns:rdf="http://www.w3.org/1999/02/22-rdf-syntax-ns#"
   xmlns:svg="http://www.w3.org/2000/svg"
   xmlns="http://www.w3.org/2000/svg"
   xmlns:sodipodi="http://sodipodi.sourceforge.net/DTD/sodipodi-0.dtd"
   xmlns:inkscape="http://www.inkscape.org/namespaces/inkscape"
   version="1.1"
   width="135.22311"
   height="148.78795"
   id="svg2"
   xml:space="preserve"
   sodipodi:docname="Antifalogo_text.svg"
   inkscape:version="0.92.3 (2405546, 2018-03-11)"><metadata
     id="metadata34"><rdf:RDF><cc:Work
         rdf:about=""><dc:format>image/svg+xml</dc:format><dc:type
           rdf:resource="http://purl.org/dc/dcmitype/StillImage" /><dc:title></dc:title></cc:Work></rdf:RDF></metadata><sodipodi:namedview
     pagecolor="#ffffff"
     bordercolor="#666666"
     borderopacity="1"
     objecttolerance="10"
     gridtolerance="10"
     guidetolerance="10"
     inkscape:pageopacity="0"
     inkscape:pageshadow="2"
     inkscape:window-width="1920"
     inkscape:window-height="1017"
     id="namedview32"
     showgrid="false"
     inkscape:zoom="1.8170921"
     inkscape:cx="198.13977"
     inkscape:cy="-12.923166"
     inkscape:window-x="-8"
     inkscape:window-y="-8"
     inkscape:window-maximized="1"
     inkscape:current-layer="svg2"
     fit-margin-top="0"
     fit-margin-left="0"
     fit-margin-right="0"
     fit-margin-bottom="0" /><defs
     id="defs6" /><path
     d="m 6.429413,45.69391 -3.108606,-3.026516 4.336927,0.614814 m 1.898604,0.271107 2.540393,0.310428 1.077946,-2.115968 L 0.782747,40.288307 0,41.824248 8.410344,51.098866 9.474291,49.010117 7.757667,47.083387"
     id="path2833"
     style="fill:#00ffff;fill-opacity:1;fill-rule:evenodd;stroke:none;stroke-width:0.06480763"
     inkscape:connector-curvature="0" /><path
     d="m 133.45452,46.622604 1.76859,-0.786765 -2.39918,-5.387457 -10.41588,4.636985 2.39854,5.387457 1.76859,-0.786764 -1.49446,-3.357035 2.81784,-1.254675 1.43938,3.232604 1.76794,-0.787412 -1.43872,-3.232605 2.29289,-1.02072 1.49447,3.356387"
     id="path26"
     style="fill:#00ffff;fill-opacity:1;fill-rule:evenodd;stroke:none;stroke-width:0.06480763"
     inkscape:connector-curvature="0" /><path
     d="M 20.852566,16.221134 27.872073,25.205629 29.623694,23.83754 22.6041,14.852397 Z"
     id="path2857"
     style="fill:#00ffff;fill-opacity:1;fill-rule:evenodd;stroke:none;stroke-width:0.06480763"
     inkscape:connector-curvature="0" /><path
     d="m 15.393171,38.421632 -6.101119,-4.766385 0.01871,-0.02398 9.975577,0.175628 0.98702,-1.263101 -9.163409,-7.159297 -1.368801,1.751749 6.041496,4.71994 -0.01849,0.02398 -9.975838,-0.175628 -0.98676,1.2631 9.222837,7.249164 z"
     id="path2845"
     style="fill:#00ffff;fill-opacity:1;fill-rule:evenodd;stroke:none;stroke-width:0.06480763"
     inkscape:connector-curvature="0" /><path
     d="m 121.00021,42.752081 9.67017,-6.041803 -1.1782,-1.885254 -3.8094,2.380385 -2.17948,-3.488595 3.80875,-2.379736 -1.17756,-1.885253 -9.66929,6.042014 1.17756,1.885254 4.32201,-2.700533 2.16069,3.458783 -4.30258,2.729697 z"
     id="path2843"
     style="fill:#00ffff;fill-opacity:1;fill-rule:evenodd;stroke:none;stroke-width:0.06480763"
     inkscape:connector-curvature="0" /><path
     d="m 18.100834,21.114972 1.653372,-1.596212 -1.344758,-1.392716 -4.905678,4.737438 1.344758,1.392067 1.653372,-1.596211 6.575705,6.809336 1.598935,-1.544366 z"
     id="path2841"
     style="fill:#00ffff;fill-opacity:1;fill-rule:evenodd;stroke:none;stroke-width:0.06480763"
     inkscape:connector-curvature="0" /><path
     d="m 122.72627,26.127841 c -0.21647,-0.852868 -0.63771,-1.659075 -1.24626,-2.311687 -2.27928,-2.444544 -5.92666,-2.165223 -8.29343,0.04147 -2.30003,2.14578 -2.70507,5.768526 -0.51847,8.113266 0.62929,0.675295 1.40633,1.086824 2.26114,1.427064 l 1.93516,-1.804244 c -0.9423,0.03111 -1.95718,-0.325335 -2.60656,-1.022017 -1.41281,-1.515202 -0.8749,-3.753657 0.52947,-5.063419 1.43809,-1.34087 3.71089,-1.78545 5.16517,-0.226179 0.64938,0.696683 0.95721,1.692127 0.82695,2.661001 l 1.94683,-1.815261"
     id="path28"
     style="fill:#00ffff;fill-opacity:1;fill-rule:evenodd;stroke:none;stroke-width:0.06480763"
     inkscape:connector-curvature="0" /><path
     d="m 30.363732,9.651799 -4.743464,3.080955 6.209844,9.561717 1.8643,-1.210607 -2.734018,-4.210765 2.701074,-1.75348 -1.054096,-1.623431 -2.701441,1.754342 -1.367053,-2.1056 2.879058,-1.869051 z"
     id="path2875"
     style="fill:#00ffff;fill-opacity:1;fill-rule:evenodd;stroke:none;stroke-width:0.06480763"
     inkscape:connector-curvature="0" /><path
     d="M 79.912188,12.877923 81.892268,1.649354 79.703718,1.263101 77.723841,12.49167 Z"
     id="path2909"
     style="fill:#00ffff;fill-opacity:1;fill-rule:evenodd;stroke:none;stroke-width:0.06480763"
     inkscape:connector-curvature="0" /><path
     d="m 94.467978,17.910021 3.85044,-8.647715 2.099762,0.934525 0.78741,-1.767951 -6.229962,-2.773766 -0.78741,1.767951 2.09977,0.935174 -3.85022,8.647068 z"
     id="path2903"
     style="fill:#00ffff;fill-opacity:1;fill-rule:evenodd;stroke:none;stroke-width:0.06480763"
     inkscape:connector-curvature="0" /><path
     d="m 100.07427,21.032452 5.70091,-9.873875 -1.92479,-1.111451 -5.701342,9.87409 z"
     id="path2901"
     style="fill:#00ffff;fill-opacity:1;fill-rule:evenodd;stroke:none;stroke-width:0.06480763"
     inkscape:connector-curvature="0" /><path
     d="M 62.598392,0.475688 C 61.781171,0.149705 60.881641,0.016849 59.99572,0.125078 c -3.316851,0.40764 -5.235159,3.522295 -4.840478,6.734162 0.383009,3.121782 3.076416,5.579287 6.25912,5.188498 0.915082,-0.112118 1.705733,-0.49902 2.483423,-0.990262 L 63.575048,8.430824 C 63.046214,9.211756 62.161588,9.822892 61.21605,9.938898 59.159701,10.191647 57.665235,8.440545 57.430637,6.534553 57.191497,4.583196 58.167499,2.48278 60.284113,2.222901 61.229011,2.106896 62.215383,2.4426 62.923079,3.117896 Z"
     id="path2899"
     style="fill:#00ffff;fill-opacity:1;fill-rule:evenodd;stroke:none;stroke-width:0.06480763"
     inkscape:connector-curvature="0" /><path
     d="M 69.208775,4.635042 69.521796,0.154891 67.304723,0 l -0.79584,11.373737 2.21772,0.154891 0.355791,-5.08351 4.102327,0.287099 -0.35515,5.083509 2.217721,0.154891 L 75.842486,0.596878 73.625411,0.441988 73.311743,4.92214 69.208775,4.635042"
     id="path32"
     style="fill:#00ffff;fill-opacity:1;fill-rule:evenodd;stroke:none;stroke-width:0.06480763"
     inkscape:connector-curvature="0" /><path
     d="m 94.485048,144.16592 1.98051,-1.00912 -3.51451,-6.89845 0.0266,-0.0137 8.966792,4.37504 1.42836,-0.72779 -5.279232,-10.36112 -1.98053,1.00905 3.48083,6.83138 -0.0272,0.0137 -8.96678,-4.37503 -1.42836,0.7276 5.31358,10.42846"
     id="path34"
     style="fill:#00ffff;fill-opacity:1;fill-rule:evenodd;stroke:none;stroke-width:0.06480763"
     inkscape:connector-curvature="0" /><path
     d="m 83.826138,147.60071 c 3.24167,-0.74833 4.87677,-3.94995 4.14249,-7.13266 -0.71806,-3.10894 -3.60135,-5.31421 -6.84303,-4.56588 -3.241682,0.74834 -4.866403,3.99454 -4.148988,7.1035 0.734923,3.1827 3.607848,5.34336 6.849528,4.59504 z m -2.20735,-9.56216 c 1.90081,-0.43875 3.67458,1.06044 4.09,2.85808 0.38755,1.67968 -0.53401,4.14263 -2.37584,4.56796 -1.84183,0.42502 -3.74912,-1.38474 -4.137324,-3.06442 -0.414764,-1.7977 0.522354,-3.92294 2.423164,-4.36162 z"
     id="path2830"
     style="fill:#00ffff;fill-opacity:1;fill-rule:evenodd;stroke:none;stroke-width:0.06480763"
     inkscape:connector-curvature="0" /><path
     d="m 72.519796,137.34893 -2.222254,0.0387 0.19896,11.40031 2.222254,-0.039 z"
     id="path2832"
     style="fill:#00ffff;fill-opacity:1;fill-rule:evenodd;stroke:none;stroke-width:0.06480763"
     inkscape:connector-curvature="0" /><path
     d="m 63.941857,139.08915 2.285765,0.24023 0.202198,-1.92497 -6.782118,-0.71288 -0.202846,1.92524 2.286413,0.24024 -0.989612,9.41405 2.210589,0.2324 z"
     id="path2834"
     style="fill:#00ffff;fill-opacity:1;fill-rule:evenodd;stroke:none;stroke-width:0.06480763"
     inkscape:connector-curvature="0" /><path
     d="m 49.432532,139.42809 -0.02959,-0.007 1.081702,-4.6854 -2.165998,-0.50026 -2.564697,11.10972 2.166,0.49999 1.153123,-4.99472 0.02934,0.007 2.397881,5.81448 2.785237,0.64302 -3.069033,-7.0094 5.397568,-4.15475 -2.66683,-0.61567 z"
     id="path2836"
     style="fill:#00ffff;fill-opacity:1;fill-rule:evenodd;stroke:none;stroke-width:0.06480763"
     inkscape:connector-curvature="0" /><path
     d="m 38.857224,140.18278 -0.131884,2.55581 2.185249,0.9276 0.592147,-12.46361 -1.587074,-0.67335 -8.664973,9.03658 2.157381,0.91567 1.802235,-1.84703 z m 0.138235,-1.9126 -2.49127,-1.05767 2.774025,-3.32365 0.02786,0.0118 z"
     id="path2838"
     style="fill:#00ffff;fill-opacity:1;fill-rule:evenodd;stroke:none;stroke-width:0.06480763"
     inkscape:connector-curvature="0" /><path
     d="m 38.477361,13.78373 -0.511194,-4.308355 2.983505,3.207112 m 1.304875,1.405525 1.778892,1.839968 2.169353,-0.966043 -8.711864,-8.932717 -1.574912,0.701055 0.699343,12.500526 2.141361,-0.953691 -0.121548,-2.577658"
     id="path2833-0"
     style="fill:#00ffff;fill-opacity:1;fill-rule:evenodd;stroke:none;stroke-width:0.43205085"
     inkscape:connector-curvature="0" /><path
     d="m 48.80458,2.234266 c -0.450927,-0.0043 -0.876946,0.04353 -1.242146,0.148517 -1.84598,0.529478 -2.775818,2.381788 -2.254765,4.198994 0.487808,1.700552 1.717748,2.118346 3.294388,2.295271 0.953644,0.08879 2.091515,0.108012 2.416785,1.242145 0.241794,0.842499 -0.08649,1.734577 -0.958613,1.984734 -0.915927,0.262471 -1.898152,-0.266575 -2.430287,-1.026121 l -0.648076,1.134133 -0.351041,0.607572 c 1.118449,1.047291 2.471136,1.608202 3.982966,1.174638 1.106785,-0.317557 1.901568,-0.953968 2.335774,-1.78221 C 53.394148,11.363608 53.4703,10.324094 53.15209,9.214587 52.097605,5.536755 47.970268,7.549895 47.440919,5.704174 47.236841,4.99129 47.743463,4.280351 48.426536,4.083984 49.138642,3.87984 49.764749,4.080484 50.330259,4.516035 L 50.897324,2.747326 C 50.346541,2.40344 49.556124,2.241235 48.80458,2.234266 Z"
     id="path3917"
     style="fill:#00ffff;fill-opacity:1;fill-rule:evenodd;stroke:none;stroke-width:0.43205085"
     inkscape:connector-curvature="0" /><path
     d="m 90.617118,3.952507 c -0.36691,-0.262182 -0.74333,-0.467329 -1.1027,-0.590815 -1.81583,-0.625088 -3.63995,0.358905 -4.25543,2.146338 -0.57578,1.672814 0.19206,2.720505 1.38209,3.769757 0.73025,0.619718 1.6513,1.28812 1.26725,2.403722 -0.28516,0.828827 -1.06578,1.371264 -1.92365,1.075955 -0.90083,-0.310351 -1.40198,-1.3071 -1.40222,-2.234504 l -1.18139,0.557305 -0.63606,0.296343 c 0.31549,1.499408 1.10183,2.734751 2.58894,3.246748 1.08876,0.374695 2.10483,0.309244 2.93558,-0.120157 0.85077,-0.439909 1.50938,-1.247753 1.8851,-2.339129 1.24576,-3.617521 -3.28987,-4.335807 -2.66481,-6.151348 0.24173,-0.701014 1.06447,-0.992806 1.73667,-0.761859 0.7004,0.241219 1.09817,0.764741 1.31163,1.445848 l 1.479,-1.12358 c -0.25393,-0.597614 -0.80838,-1.183855 -1.42,-1.62063 z"
     id="path3917-1"
     style="fill:#00ffff;fill-opacity:1;fill-rule:evenodd;stroke:none;stroke-width:0.43205085"
     inkscape:connector-curvature="0" /><path
     d="m 110.00371,14.554293 c -0.96178,0.04351 -1.89706,0.52594 -2.55179,1.36366 -0.16461,0.209978 -0.30395,0.416929 -0.40505,0.621073 -0.56706,1.150983 -0.17951,2.217176 0.48606,3.388898 0.48865,0.823704 1.1444,1.757474 0.41855,2.686816 -0.53985,0.691497 -1.45892,0.963689 -2.17376,0.405048 -0.75047,-0.586509 -0.89607,-1.701957 -0.59406,-2.578804 l -1.99824,0.216026 c -0.19053,1.521035 0.15154,2.947234 1.39066,3.915461 1.83535,1.434192 3.95446,1.029469 5.36013,-0.769592 2.35576,-3.01485 -1.69515,-5.170027 -0.51306,-6.683286 0.45625,-0.583915 1.31613,-0.585967 1.87672,-0.148517 0.58392,0.456245 0.78968,1.082179 0.76959,1.795712 l 1.78222,-0.580569 c -0.0376,-0.530126 -0.27329,-1.115771 -0.59407,-1.647193 -0.3059,-0.504851 -0.68999,-0.964553 -1.08013,-1.269149 -0.66206,-0.517449 -1.42568,-0.749417 -2.17377,-0.715584 z"
     id="path2847-4"
     style="fill:#00ffff;fill-opacity:1;fill-rule:evenodd;stroke:none;stroke-width:0.43205085"
     inkscape:connector-curvature="0" /><path
     d="m 283.5889,141.45643 28.35073,-78.460133 -2.29483,-1.349944 c -6.88582,-6.210514 -9.85659,-10.126191 -17.14745,-12.961525 -11.21497,-4.361553 -20.52199,4.185278 -30.10833,6.751011 -14.72947,3.9416 -28.28788,2.911159 -40.70936,-5.324594 -1.33465,-0.885273 -1.7931,-1.754343 -2.83533,-2.970782 -8.77612,9.721792 -15.55591,22.235496 -16.86444,36.7025 -0.0382,0.422546 0.066,0.661038 0.13493,1.079698 2.97052,2.430283 24.36209,22.509769 54.20043,11.843596 12.06783,-4.313603 20.11759,0.53984 30.51402,7.020733 1.69149,1.05463 1.58779,1.03796 2.5651,1.75512 l -12.82674,38.88458 3.37583,-0.94502 3.64544,-2.02524"
     id="path22-7"
     style="fill:#ed1c24;fill-opacity:1;fill-rule:nonzero;stroke:none;stroke-width:0.06480763"
     inkscape:connector-curvature="0" /><path
     inkscape:connector-curvature="0"
     style="color:#000000;font-style:normal;font-variant:normal;font-weight:normal;font-stretch:normal;font-size:medium;line-height:normal;font-family:'Bitstream Vera Sans';-inkscape-font-specification:'Bitstream Vera Sans';text-indent:0;text-align:start;text-decoration:none;text-decoration-line:none;letter-spacing:normal;word-spacing:normal;text-transform:none;writing-mode:lr-tb;direction:ltr;text-anchor:start;display:inline;overflow:visible;visibility:visible;fill:#00ffff;fill-opacity:1;stroke:none;stroke-width:17.60518456;marker:none;enable-background:accumulate"
     d="m 259.74823,28.762796 c -33.15193,0 -59.83735,26.687171 -59.83735,59.839884 0,33.15251 26.68539,59.8382 59.83735,59.8382 33.15275,0 59.83987,-26.68568 59.83987,-59.8382 0,-33.152726 -26.68712,-59.839884 -59.83987,-59.839884 z m -40.9039,18.378194 c 1.04224,1.216439 1.50069,2.085077 2.83534,2.970349 12.42147,8.235754 25.98033,9.26629 40.70981,5.324691 9.58634,-2.565734 18.8936,-11.112348 30.10856,-6.750796 7.29085,2.835334 10.26121,6.751011 17.14702,12.961526 l 2.29526,1.350159 -28.35083,78.459421 -3.64542,2.02523 -3.37622,0.94512 12.82652,-38.88458 c -0.97731,-0.71716 -0.87301,-0.70059 -2.5645,-1.7552 -10.39643,-6.480897 -18.44658,-11.333583 -30.51442,-7.019989 -29.83833,10.666179 -51.22991,-9.413977 -54.20043,-11.844266 -0.0689,-0.418661 -0.17326,-0.656737 -0.13502,-1.079283 1.30853,-14.467008 8.08821,-26.98059 16.86433,-36.702382 z m -16.72931,40.281993 c 13.6339,11.287537 27.4211,17.001087 46.23534,13.799467 8.84041,-1.504192 14.47545,-6.127568 22.81684,-2.835334 1.24884,0.493178 1.94226,0.815517 3.10621,1.484334 l -16.91749,46.72983 c -0.83537,0.0344 -1.3104,0.0399 -2.14253,-0.0363 -1.4841,-0.13616 -2.3281,-0.32074 -3.73573,-0.81009 l 8.61908,-25.49522 -1.351,-0.94595 c -4.99538,-1.89005 -7.25083,-3.49869 -13.90579,-2.29443 -14.17667,2.56521 -32.71286,-4.0606 -39.64572,-18.556248 -1.48501,-3.105589 -2.311,-4.531461 -2.80918,-7.682407 -0.20505,-1.29745 -0.27107,-2.044029 -0.27003,-3.357678 z"
     id="path20-4-4" /></svg>