<?xml version="1.0" encoding="UTF-8" standalone="no"?>
<!-- Created with Inkscape (http://www.inkscape.org/) -->

<svg
   xmlns:dc="http://purl.org/dc/elements/1.1/"
   xmlns:cc="http://creativecommons.org/ns#"
   xmlns:rdf="http://www.w3.org/1999/02/22-rdf-syntax-ns#"
   xmlns:svg="http://www.w3.org/2000/svg"
   xmlns="http://www.w3.org/2000/svg"
   xmlns:sodipodi="http://sodipodi.sourceforge.net/DTD/sodipodi-0.dtd"
   xmlns:inkscape="http://www.inkscape.org/namespaces/inkscape"
   version="1.1"
   width="135.22311"
   height="148.78795"
   id="svg2"
   xml:space="preserve"
   sodipodi:docname="Antifalogo_text.svg"
   inkscape:version="0.92.3 (2405546, 2018-03-11)"><metadata
     id="metadata34"><rdf:RDF><cc:Work
         rdf:about=""><dc:format>image/svg+xml</dc:format><dc:type
           rdf:resource="http://purl.org/dc/dcmitype/StillImage" /><dc:title></dc:title></cc:Work></rdf:RDF></metadata><sodipodi:namedview
     pagecolor="#ffffff"
     bordercolor="#666666"
     borderopacity="1"
     objecttolerance="10"
     gridtolerance="10"
     guidetolerance="10"
     inkscape:pageopacity="0"
     inkscape:pageshadow="2"
     inkscape:window-width="1920"
     inkscape:window-height="1017"
     id="namedview32"
     showgrid="false"
     inkscape:zoom="1.8170921"
     inkscape:cx="198.13977"
     inkscape:cy="-12.923166"
     inkscape:window-x="-8"
     inkscape:window-y="-8"
     inkscape:window-maximized="1"
     inkscape:current-layer="svg2"
     fit-margin-top="0"
     fit-margin-left="0"
     fit-margin-right="0"
     fit-margin-bottom="0" /><defs
     id="defs6" /><path
     d="m 206.19914,222.90012 -3.1086,-3.02652 4.33692,0.61481 m 1.89861,0.27111 2.54039,0.31043 1.07795,-2.11597 -12.39193,-1.45947 -0.78275,1.53594 8.41034,9.27462 1.06395,-2.08875 -1.71662,-1.92673"
     id="path2833"
     style="fill:#00ffff;fill-opacity:1;fill-rule:evenodd;stroke:none;stroke-width:0.06480763"
     inkscape:connector-curvature="0" /><path
     d="m 333.22425,223.82881 1.76859,-0.78677 -2.39918,-5.38745 -10.41588,4.63698 2.39854,5.38746 1.76859,-0.78676 -1.49446,-3.35704 2.81784,-1.25467 1.43938,3.2326 1.76794,-0.78741 -1.43872,-3.23261 2.29289,-1.02072 1.49447,3.35639"
     id="path26"
     style="fill:#00ffff;fill-opacity:1;fill-rule:evenodd;stroke:none;stroke-width:0.06480763"
     inkscape:connector-curvature="0" /><path
     d="m 220.62229,193.42734 7.01951,8.98449 1.75162,-1.36808 -7.01959,-8.98515 z"
     id="path2857"
     style="fill:#00ffff;fill-opacity:1;fill-rule:evenodd;stroke:none;stroke-width:0.06480763"
     inkscape:connector-curvature="0" /><path
     d="m 215.1629,215.62784 -6.10112,-4.76639 0.0187,-0.024 9.97558,0.17563 0.98702,-1.2631 -9.16341,-7.1593 -1.3688,1.75175 6.04149,4.71994 -0.0185,0.024 -9.97583,-0.17563 -0.98676,1.2631 9.22283,7.24917 z"
     id="path2845"
     style="fill:#00ffff;fill-opacity:1;fill-rule:evenodd;stroke:none;stroke-width:0.06480763"
     inkscape:connector-curvature="0" /><path
     d="m 320.76994,219.95829 9.67017,-6.04181 -1.1782,-1.88525 -3.8094,2.38038 -2.17948,-3.48859 3.80875,-2.37974 -1.17756,-1.88525 -9.66929,6.04201 1.17756,1.88526 4.32201,-2.70053 2.16069,3.45878 -4.30258,2.7297 z"
     id="path2843"
     style="fill:#00ffff;fill-opacity:1;fill-rule:evenodd;stroke:none;stroke-width:0.06480763"
     inkscape:connector-curvature="0" /><path
     d="m 217.87056,198.32118 1.65337,-1.59621 -1.34475,-1.39272 -4.90568,4.73744 1.34476,1.39206 1.65337,-1.59621 6.5757,6.80934 1.59894,-1.54437 z"
     id="path2841"
     style="fill:#00ffff;fill-opacity:1;fill-rule:evenodd;stroke:none;stroke-width:0.06480763"
     inkscape:connector-curvature="0" /><path
     d="m 322.496,203.33405 c -0.21647,-0.85287 -0.63771,-1.65908 -1.24626,-2.31169 -2.27928,-2.44454 -5.92666,-2.16522 -8.29343,0.0415 -2.30003,2.14578 -2.70507,5.76853 -0.51847,8.11327 0.62929,0.67529 1.40633,1.08682 2.26114,1.42706 l 1.93516,-1.80424 c -0.9423,0.0311 -1.95718,-0.32534 -2.60656,-1.02202 -1.41281,-1.5152 -0.8749,-3.75366 0.52947,-5.06342 1.43809,-1.34087 3.71089,-1.78545 5.16517,-0.22618 0.64938,0.69668 0.95721,1.69213 0.82695,2.661 l 1.94683,-1.81526"
     id="path28"
     style="fill:#00ffff;fill-opacity:1;fill-rule:evenodd;stroke:none;stroke-width:0.06480763"
     inkscape:connector-curvature="0" /><path
     d="m 230.13346,186.858 -4.74346,3.08096 6.20984,9.56172 1.8643,-1.21061 -2.73402,-4.21077 2.70108,-1.75348 -1.0541,-1.62343 -2.70144,1.75435 -1.36705,-2.1056 2.87905,-1.86906 z"
     id="path2875"
     style="fill:#00ffff;fill-opacity:1;fill-rule:evenodd;stroke:none;stroke-width:0.06480763"
     inkscape:connector-curvature="0" /><path
     d="m 279.68192,190.08413 1.98008,-11.22857 -2.18855,-0.38625 -1.97988,11.22857 z"
     id="path2909"
     style="fill:#00ffff;fill-opacity:1;fill-rule:evenodd;stroke:none;stroke-width:0.06480763"
     inkscape:connector-curvature="0" /><path
     d="m 294.23771,195.11623 3.85044,-8.64772 2.09976,0.93453 0.78741,-1.76795 -6.22996,-2.77377 -0.78741,1.76795 2.09977,0.93517 -3.85022,8.64707 z"
     id="path2903"
     style="fill:#00ffff;fill-opacity:1;fill-rule:evenodd;stroke:none;stroke-width:0.06480763"
     inkscape:connector-curvature="0" /><path
     d="m 299.844,198.23866 5.70091,-9.87388 -1.92479,-1.11145 -5.70134,9.87409 z"
     id="path2901"
     style="fill:#00ffff;fill-opacity:1;fill-rule:evenodd;stroke:none;stroke-width:0.06480763"
     inkscape:connector-curvature="0" /><path
     d="m 262.36812,177.68189 c -0.81722,-0.32598 -1.71675,-0.45884 -2.60267,-0.35061 -3.31685,0.40764 -5.23516,3.5223 -4.84048,6.73417 0.38301,3.12178 3.07642,5.57928 6.25912,5.18849 0.91508,-0.11211 1.70573,-0.49902 2.48342,-0.99026 l -0.32273,-2.62665 c -0.52884,0.78093 -1.41346,1.39207 -2.359,1.50807 -2.05635,0.25275 -3.55082,-1.49835 -3.78541,-3.40434 -0.23914,-1.95136 0.73686,-4.05177 2.85347,-4.31165 0.9449,-0.11601 1.93127,0.2197 2.63897,0.89499 z"
     id="path2899"
     style="fill:#00ffff;fill-opacity:1;fill-rule:evenodd;stroke:none;stroke-width:0.06480763"
     inkscape:connector-curvature="0" /><path
     d="m 268.9785,181.84125 0.31302,-4.48015 -2.21707,-0.15489 -0.79584,11.37373 2.21772,0.15489 0.35579,-5.08351 4.10233,0.2871 -0.35515,5.08351 2.21772,0.15489 0.79519,-11.37374 -2.21707,-0.15489 -0.31367,4.48016 -4.10297,-0.2871"
     id="path32"
     style="fill:#00ffff;fill-opacity:1;fill-rule:evenodd;stroke:none;stroke-width:0.06480763"
     inkscape:connector-curvature="0" /><path
     d="m 294.25478,321.37213 1.98051,-1.00912 -3.51451,-6.89845 0.0266,-0.0137 8.96679,4.37504 1.42836,-0.72779 -5.27923,-10.36112 -1.98053,1.00905 3.48083,6.83138 -0.0272,0.0137 -8.96678,-4.37503 -1.42836,0.7276 5.31358,10.42846"
     id="path34"
     style="fill:#00ffff;fill-opacity:1;fill-rule:evenodd;stroke:none;stroke-width:0.06480763"
     inkscape:connector-curvature="0" /><path
     d="m 283.59587,324.80692 c 3.24167,-0.74833 4.87677,-3.94995 4.14249,-7.13266 -0.71806,-3.10894 -3.60135,-5.31421 -6.84303,-4.56588 -3.24169,0.74834 -4.86641,3.99454 -4.14899,7.1035 0.73492,3.1827 3.60785,5.34336 6.84953,4.59504 z m -2.20735,-9.56216 c 1.90081,-0.43875 3.67458,1.06044 4.09,2.85808 0.38755,1.67968 -0.53401,4.14263 -2.37584,4.56796 -1.84183,0.42502 -3.74912,-1.38474 -4.13733,-3.06442 -0.41476,-1.7977 0.52236,-3.92294 2.42317,-4.36162 z"
     id="path2830"
     style="fill:#00ffff;fill-opacity:1;fill-rule:evenodd;stroke:none;stroke-width:0.06480763"
     inkscape:connector-curvature="0" /><path
     d="m 272.28952,314.55514 -2.22225,0.0387 0.19896,11.40031 2.22225,-0.039 z"
     id="path2832"
     style="fill:#00ffff;fill-opacity:1;fill-rule:evenodd;stroke:none;stroke-width:0.06480763"
     inkscape:connector-curvature="0" /><path
     d="m 263.71159,316.29536 2.28576,0.24023 0.2022,-1.92497 -6.78212,-0.71288 -0.20285,1.92524 2.28642,0.24024 -0.98961,9.41405 2.21058,0.2324 z"
     id="path2834"
     style="fill:#00ffff;fill-opacity:1;fill-rule:evenodd;stroke:none;stroke-width:0.06480763"
     inkscape:connector-curvature="0" /><path
     d="m 249.20226,316.6343 -0.0296,-0.007 1.0817,-4.6854 -2.166,-0.50026 -2.56469,11.10972 2.166,0.49999 1.15312,-4.99472 0.0293,0.007 2.39788,5.81448 2.78524,0.64302 -3.06903,-7.0094 5.39756,-4.15475 -2.66683,-0.61567 z"
     id="path2836"
     style="fill:#00ffff;fill-opacity:1;fill-rule:evenodd;stroke:none;stroke-width:0.06480763"
     inkscape:connector-curvature="0" /><path
     d="m 238.62695,317.38899 -0.13188,2.55581 2.18525,0.9276 0.59214,-12.46361 -1.58707,-0.67335 -8.66497,9.03658 2.15738,0.91567 1.80223,-1.84703 z m 0.13824,-1.9126 -2.49127,-1.05767 2.77402,-3.32365 0.0279,0.0118 z"
     id="path2838"
     style="fill:#00ffff;fill-opacity:1;fill-rule:evenodd;stroke:none;stroke-width:0.06480763"
     inkscape:connector-curvature="0" /><path
     d="m 238.24709,190.98994 -0.51119,-4.30836 2.9835,3.20711 m 1.30488,1.40553 1.77889,1.83997 2.16935,-0.96605 -8.71186,-8.93271 -1.57492,0.70105 0.69935,12.50053 2.14136,-0.95369 -0.12155,-2.57766"
     id="path2833-0"
     style="fill:#00ffff;fill-opacity:1;fill-rule:evenodd;stroke:none;stroke-width:0.43205085"
     inkscape:connector-curvature="0" /><path
     d="m 248.57431,179.44047 c -0.45093,-0.004 -0.87695,0.0435 -1.24215,0.14852 -1.84598,0.52948 -2.77582,2.38179 -2.25476,4.19899 0.48781,1.70055 1.71775,2.11835 3.29439,2.29527 0.95364,0.0888 2.09151,0.10802 2.41678,1.24215 0.24179,0.8425 -0.0865,1.73458 -0.95861,1.98473 -0.91593,0.26247 -1.89815,-0.26657 -2.43029,-1.02612 l -0.64808,1.13413 -0.35104,0.60758 c 1.11845,1.04729 2.47114,1.6082 3.98297,1.17463 1.10678,-0.31755 1.90157,-0.95396 2.33577,-1.78221 0.44459,-0.84833 0.52074,-1.88784 0.20253,-2.99735 -1.05449,-3.67783 -5.18182,-1.66469 -5.71117,-3.51041 -0.20408,-0.71288 0.30254,-1.42382 0.98561,-1.62019 0.71211,-0.20414 1.33822,-0.004 1.90373,0.43205 l 0.56706,-1.76871 c -0.55078,-0.34388 -1.3412,-0.50609 -2.09274,-0.51306 z"
     id="path3917"
     style="fill:#00ffff;fill-opacity:1;fill-rule:evenodd;stroke:none;stroke-width:0.43205085"
     inkscape:connector-curvature="0" /><path
     d="m 290.38685,181.15871 c -0.36691,-0.26218 -0.74333,-0.46733 -1.1027,-0.59081 -1.81583,-0.62509 -3.63995,0.3589 -4.25543,2.14634 -0.57578,1.67281 0.19206,2.7205 1.38209,3.76975 0.73025,0.61972 1.6513,1.28812 1.26725,2.40372 -0.28516,0.82883 -1.06578,1.37127 -1.92365,1.07596 -0.90083,-0.31035 -1.40198,-1.3071 -1.40222,-2.2345 l -1.18139,0.5573 -0.63606,0.29634 c 0.31549,1.49941 1.10183,2.73475 2.58894,3.24675 1.08876,0.3747 2.10483,0.30925 2.93558,-0.12016 0.85077,-0.4399 1.50938,-1.24775 1.8851,-2.33912 1.24576,-3.61753 -3.28987,-4.33581 -2.66481,-6.15135 0.24173,-0.70102 1.06447,-0.99281 1.73667,-0.76186 0.7004,0.24122 1.09817,0.76474 1.31163,1.44585 l 1.479,-1.12358 c -0.25393,-0.59762 -0.80838,-1.18386 -1.42,-1.62063 z"
     id="path3917-1"
     style="fill:#00ffff;fill-opacity:1;fill-rule:evenodd;stroke:none;stroke-width:0.43205085"
     inkscape:connector-curvature="0" /><path
     d="m 309.77344,191.7605 c -0.96178,0.0435 -1.89706,0.52594 -2.55179,1.36366 -0.16461,0.20998 -0.30395,0.41693 -0.40505,0.62107 -0.56706,1.15098 -0.17951,2.21718 0.48606,3.3889 0.48865,0.8237 1.1444,1.75747 0.41855,2.68682 -0.53985,0.69149 -1.45892,0.96368 -2.17376,0.40504 -0.75047,-0.58651 -0.89607,-1.70195 -0.59406,-2.5788 l -1.99824,0.21603 c -0.19053,1.52103 0.15154,2.94723 1.39066,3.91546 1.83535,1.43419 3.95446,1.02947 5.36013,-0.7696 2.35576,-3.01485 -1.69515,-5.17002 -0.51306,-6.68328 0.45625,-0.58392 1.31613,-0.58597 1.87672,-0.14852 0.58392,0.45625 0.78968,1.08218 0.76959,1.79571 l 1.78222,-0.58057 c -0.0376,-0.53012 -0.27329,-1.11577 -0.59407,-1.64719 -0.3059,-0.50485 -0.68999,-0.96455 -1.08013,-1.26915 -0.66206,-0.51745 -1.42568,-0.74941 -2.17377,-0.71558 z"
     id="path2847-4"
     style="fill:#00ffff;fill-opacity:1;fill-rule:evenodd;stroke:none;stroke-width:0.43205085"
     inkscape:connector-curvature="0" /><path
     d="m 94.275438,122.19489 28.350732,-78.460137 -2.29483,-1.349944 c -6.88582,-6.210514 -9.85659,-10.126191 -17.14745,-12.961525 -11.214972,-4.361553 -20.521992,4.185278 -30.108332,6.751011 -14.72947,3.9416 -28.28788,2.911159 -40.70936,-5.324594 -1.33465,-0.885273 -1.7931,-1.754343 -2.83533,-2.970782 -8.77612,9.721792 -15.55591,22.235496 -16.86444,36.7025 -0.0382,0.422546 0.066,0.661038 0.13493,1.079698 2.97052,2.430283 24.36209,22.509769 54.20043,11.843596 12.06783,-4.313603 20.11759,0.53984 30.51402,7.020733 1.69149,1.05463 1.58779,1.03796 2.565102,1.75512 l -12.826742,38.884584 3.37583,-0.94502 3.64544,-2.02524"
     id="path22-7"
     style="fill:#ed1c24;fill-opacity:1;fill-rule:nonzero;stroke:none;stroke-width:0.06480763"
     inkscape:connector-curvature="0" /><path
     inkscape:connector-curvature="0"
     style="color:#000000;font-style:normal;font-variant:normal;font-weight:normal;font-stretch:normal;font-size:medium;line-height:normal;font-family:'Bitstream Vera Sans';-inkscape-font-specification:'Bitstream Vera Sans';text-indent:0;text-align:start;text-decoration:none;text-decoration-line:none;letter-spacing:normal;word-spacing:normal;text-transform:none;writing-mode:lr-tb;direction:ltr;text-anchor:start;display:inline;overflow:visible;visibility:visible;fill:#00ffff;fill-opacity:1;stroke:none;stroke-width:17.60518456;marker:none;enable-background:accumulate"
     d="m 259.74823,28.762796 c -33.15193,0 -59.83735,26.687171 -59.83735,59.839884 0,33.15251 26.68539,59.8382 59.83735,59.8382 33.15275,0 59.83987,-26.68568 59.83987,-59.8382 0,-33.152726 -26.68712,-59.839884 -59.83987,-59.839884 z m -40.9039,18.378194 c 1.04224,1.216439 1.50069,2.085077 2.83534,2.970349 12.42147,8.235754 25.98033,9.26629 40.70981,5.324691 9.58634,-2.565734 18.8936,-11.112348 30.10856,-6.750796 7.29085,2.835334 10.26121,6.751011 17.14702,12.961526 l 2.29526,1.350159 -28.35083,78.459421 -3.64542,2.02523 -3.37622,0.94512 12.82652,-38.88458 c -0.97731,-0.71716 -0.87301,-0.70059 -2.5645,-1.7552 -10.39643,-6.480897 -18.44658,-11.333583 -30.51442,-7.019989 -29.83833,10.666179 -51.22991,-9.413977 -54.20043,-11.844266 -0.0689,-0.418661 -0.17326,-0.656737 -0.13502,-1.079283 1.30853,-14.467008 8.08821,-26.98059 16.86433,-36.702382 z m -16.72931,40.281993 c 13.6339,11.287537 27.4211,17.001087 46.23534,13.799467 8.84041,-1.504192 14.47545,-6.127568 22.81684,-2.835334 1.24884,0.493178 1.94226,0.815517 3.10621,1.484334 l -16.91749,46.72983 c -0.83537,0.0344 -1.3104,0.0399 -2.14253,-0.0363 -1.4841,-0.13616 -2.3281,-0.32074 -3.73573,-0.81009 l 8.61908,-25.49522 -1.351,-0.94595 c -4.99538,-1.89005 -7.25083,-3.49869 -13.90579,-2.29443 -14.17667,2.56521 -32.71286,-4.0606 -39.64572,-18.556248 -1.48501,-3.105589 -2.311,-4.531461 -2.80918,-7.682407 -0.20505,-1.29745 -0.27107,-2.044029 -0.27003,-3.357678 z"
     id="path20-4-4" /></svg>